<svg xmlns="http://www.w3.org/2000/svg" width="737.833" height="424.328" viewBox="0 0 737.833 424.328">
  <g id="Group_7841" data-name="Group 7841" transform="translate(-173 -357.453)">
    <g id="Group_7821" data-name="Group 7821">
      <g id="Group_7721" data-name="Group 7721" transform="translate(69 27.261)">
        <path id="Path_5930" data-name="Path 5930" d="M351.131,528.657h688.442c11.945,0,22.083-13.977,23.776-32.816,6.334-70.457,10.8-234.59-75.913-293.579-43.328-29.475.568,42.2-46.031,12.135s-50.6-63.615-119.215-89.747c-52.145-19.86-165.926-28.706-278.734,17.941-82.129,33.962-17.39,55.987-31.857,59.67-58.059,14.781-98.991-12.82-134.069,37.459C359.04,266.225,295.772,415.552,351.131,528.657Z" transform="translate(-224.912 221.63)" fill="#e2e2e2"/>
        <g id="Group_7633" data-name="Group 7633" transform="translate(705.915 463.418)">
          <path id="Path_5931" data-name="Path 5931" d="M867.807,346.311S838.751,329.759,841,314.248s13.086-7.47,12.811-21.021-16.44-19.07-4.191-38.035,28.041-15.315,31.97-27.275,3.379-36.63,12.359-59.8S929.666,115.8,950.6,120.852,939.171,182.9,940.663,192.8s13.923,1.594,12.139,24.3-36.932,51.1-29.09,70.916-16.93,41.765-32.446,49.235S867.807,346.311,867.807,346.311Z" transform="translate(-840.876 -120.274)" fill="#2e88bf"/>
          <path id="Path_5932" data-name="Path 5932" d="M940.788,150.688c-10.807,27.657-28.853,83.067-29.58,84.9s-23.5,69.947-23.5,69.947l-11.339,41.206c1.793-.422,9.553-2.465,23.049-8.963,15.516-7.47,40.288-29.42,32.446-49.235s27.306-48.208,29.09-70.916-10.647-14.4-12.139-24.3c-1.416-9.4,27.664-61.233,12.711-70.789C953.577,129.531,945.367,138.97,940.788,150.688Z" transform="translate(-849.025 -120.793)" fill="#2768af"/>
          <path id="Path_5933" data-name="Path 5933" d="M886.528,330.962s-33.429-30.476-34.909-28.156c-6.286,9.851,33.642,32.449,33.642,32.449Z" transform="translate(-843.188 -162.157)" fill="#4cb4d4"/>
          <path id="Path_5934" data-name="Path 5934" d="M854.144,332.949l18.042,14.62-16.773-5.991c-.332,3.694-1.762,5.3-3.565,6.482l26.319,13.65,4.712-16.275-34.719-24.29C849.825,325.2,852.527,328.788,854.144,332.949Z" transform="translate(-842.549 -166.397)" fill="#4cb4d4"/>
          <path id="Path_5935" data-name="Path 5935" d="M908.47,310.117l27.011-10.128L905.856,302.5l-6.247,23.476,34.531-4.1.843-4.906-20.606,2.655,20.911-5.388s2.409-8.013,4.373-9.741Z" transform="translate(-854.362 -161.539)" fill="#2e88bf"/>
          <path id="Path_5936" data-name="Path 5936" d="M916.1,261.309s44-11.454,44.439-11.664,6.407-5.636,6.407-5.636l1.24-12.047-32.793,17.064,29.84-19.686-35.854,9.64,34.91-18.022s-5.092-2.992-6.049-4.745L943.772,225.3,956.7,212.755a23.271,23.271,0,0,1,1.9-13.012l-4.889,2.114a43.185,43.185,0,0,0-22.314,22.077l-3.324,7.467Z" transform="translate(-858.148 -138.521)" fill="#2e88bf"/>
          <path id="Path_5937" data-name="Path 5937" d="M897.263,304.5s-19.4-32.691-16.433-34.255a26.362,26.362,0,0,0,4.031-2.505c1.367-.88,2.045-2.351,3.236.569s9.08,20.539,9.08,20.539-7.35-24.042-6.789-25.491a62.742,62.742,0,0,0,2.55-8.526c.094-1.355,6.44,21.308,6.789,23.061s2.315,13.389,2.315,13.389Z" transform="translate(-849.979 -151.156)" fill="#4cb4d4"/>
          <path id="Path_5938" data-name="Path 5938" d="M959.277,121.428c-1.943,1.695-4.068,3.514-6.408,5.475-14.969,12.54-25.783,48.2-34.472,76.86-3.538,11.668-6.593,21.746-9.259,27.875-8.847,20.336-32.936,106.9-34.956,114.178.806.493,1.273.76,1.273.76s.54-.109,1.593-.4c2.514-9.033,26.188-93.809,34.711-113.4,2.733-6.282,5.81-16.432,9.374-28.185,8.126-26.8,19.255-63.506,33.571-75.5,2.656-2.224,5.043-4.273,7.2-6.159A8.2,8.2,0,0,0,959.277,121.428Z" transform="translate(-848.523 -120.539)" fill="#4cb4d4"/>
          <path id="Path_5939" data-name="Path 5939" d="M913.691,250.026s-13.929-25.159-14.1-28.04.845-10.777.845-10.777l10.177,23.4-3.64-11.745,6.585,7.432-9.677-27.384,2.372-12.864,14.119,18.4s-13.167-22.558-12.808-24.006,4.194-10.231,4.194-10.231L930.126,200.1Z" transform="translate(-854.353 -132.658)" fill="#4cb4d4"/>
        </g>
        <g id="Group_7634" data-name="Group 7634" transform="translate(741.825 572.535)">
          <path id="Path_5940" data-name="Path 5940" d="M896.84,401.2s-14.57-22.682-7.337-36.759,35.456-21.978,37.953-33.814,9.417-25.85,19.076-32.637,15.483-45.769,30.827-33.809,13.17,69.081-5.855,95.554S905.125,403.755,896.84,401.2Z" transform="translate(-887.488 -261.914)" fill="#2e88bf"/>
          <path id="Path_5941" data-name="Path 5941" d="M980.614,264.179c-4.266-3.326-7.8-2.709-10.879.056a183.144,183.144,0,0,1,.005,26.409c-1.643,20.371-.948,35.417-12.469,45.248s-44.263,43.163-48.38,52.779a98.324,98.324,0,0,1-7.229,12.76c11.477.509,55.04-16.575,73.1-41.7C993.784,333.26,995.958,276.138,980.614,264.179Z" transform="translate(-890.743 -261.914)" fill="#2768af"/>
          <path id="Path_5942" data-name="Path 5942" d="M972.369,262.4a9.269,9.269,0,0,0-2.987,1.819c-.905,13.518-2.7,40.184-3.587,52.224-.8,10.923-9.9,18.971-21.415,29.159-5.139,4.548-10.965,9.7-16.682,15.7-13.637,14.316-23.8,31.672-28.215,39.828.066.106.111.176.111.176a8.8,8.8,0,0,0,2.927.22c4.582-8.357,14.339-24.7,27.247-38.253,5.633-5.913,11.41-11.024,16.507-15.533,12-10.619,21.482-19.007,22.371-31.091C969.579,303.972,971.521,275.1,972.369,262.4Z" transform="translate(-890.243 -262.025)" fill="#4cb4d4"/>
          <path id="Path_5943" data-name="Path 5943" d="M917.83,399.181s-3.33-27.031-2.582-28.76,4.346-3.783,4.346-3.783l1.441,19.391,1.971-21.773s6.706-4.132,7.454-5.253.3,16.7.3,16.7,1.97-18.128,2.508-19.693,2.525-6.214,2.525-6.214l1.344,28.035Z" transform="translate(-893.837 -282.093)" fill="#4cb4d4"/>
          <path id="Path_5944" data-name="Path 5944" d="M949.244,364.961s-4.437-26.325-4.19-28.722,3.878-10.573,3.878-10.573l3.171,15.887s-2.641-17.694-1.846-19.391a59.461,59.461,0,0,1,4.411-6.306l2.238,11.215s-.883-12.538-.135-13.659,4.455-2.428,4.455-2.428,3.957,37.677.654,41.414S949.244,364.961,949.244,364.961Z" transform="translate(-900.704 -273.181)" fill="#4cb4d4"/>
        </g>
        <g id="Group_7637" data-name="Group 7637" transform="translate(330.526 445.709)">
          <rect id="Rectangle_835" data-name="Rectangle 835" width="275.69" height="301.97" transform="translate(0 0)" fill="#ff8f8f"/>
          <g id="Group_7636" data-name="Group 7636" transform="translate(36.873)">
            <rect id="Rectangle_836" data-name="Rectangle 836" width="3.887" height="75.428" transform="translate(0 226.542)" fill="#ffc7c7"/>
            <g id="Group_7635" data-name="Group 7635">
              <path id="Path_5945" data-name="Path 5945" d="M568.688,250.791V493.5h242.7v-242.7Zm238.818,47.763H763.629V254.679h43.876ZM668.1,394.081V350.2h43.876v43.876Zm43.876,3.888v43.875H668.1V397.969Zm-47.763-3.888H620.339V350.2h43.877Zm3.887-47.763V302.442h43.876v43.876Zm47.763,3.887h43.876v43.876H715.866Zm0-3.887V302.442h43.876v43.876Zm0-47.764V254.679h43.876v43.875Zm-3.887,0H668.1V254.679h43.876Zm-47.763,0H620.339V254.679h43.877Zm0,3.888v43.876H620.339V302.442Zm-47.764,43.876H572.576V302.442h43.876Zm0,3.887v43.876H572.576V350.2Zm0,47.764v43.875H572.576V397.969Zm3.887,0h43.877v43.875H620.339Zm43.877,47.763v43.876H620.339V445.732Zm3.887,0h43.876v43.876H668.1Zm47.763,0h43.876v43.876H715.866Zm0-3.888V397.969h43.876v43.875Zm47.763-43.875h43.876v43.875H763.629Zm0-3.888V350.2h43.876v43.876Zm0-47.763V302.442h43.876v43.876ZM616.452,254.679v43.875H572.576V254.679ZM572.576,445.732h43.876v43.876H572.576Zm191.053,43.876V445.732h43.876v43.876Z" transform="translate(-568.688 -250.791)" fill="#ffc7c7"/>
              <path id="Path_5946" data-name="Path 5946" d="M616.762,254.989l-43.876,43.876V254.989Z" transform="translate(-568.998 -251.101)" fill="#d95f76"/>
              <path id="Path_5947" data-name="Path 5947" d="M668.337,254.989l-43.876,43.876V254.989Z" transform="translate(-572.81 -251.101)" fill="#d95f76"/>
              <path id="Path_5948" data-name="Path 5948" d="M719.913,254.989l-43.876,43.876V254.989Z" transform="translate(-576.622 -251.101)" fill="#d95f76"/>
              <path id="Path_5949" data-name="Path 5949" d="M771.488,254.989l-43.876,43.876V254.989Z" transform="translate(-580.434 -251.101)" fill="#d95f76"/>
              <path id="Path_5950" data-name="Path 5950" d="M823.063,254.989l-43.876,43.876V254.989Z" transform="translate(-584.246 -251.101)" fill="#d95f76"/>
              <path id="Path_5951" data-name="Path 5951" d="M616.763,306.564,572.887,350.44V306.564Z" transform="translate(-568.998 -254.913)" fill="#d95f76"/>
              <path id="Path_5952" data-name="Path 5952" d="M668.338,306.564,624.462,350.44V306.564Z" transform="translate(-572.81 -254.913)" fill="#d95f76"/>
              <path id="Path_5953" data-name="Path 5953" d="M719.913,306.564,676.037,350.44V306.564Z" transform="translate(-576.622 -254.913)" fill="#d95f76"/>
              <path id="Path_5954" data-name="Path 5954" d="M771.488,306.564,727.612,350.44V306.564Z" transform="translate(-580.434 -254.913)" fill="#d95f76"/>
              <path id="Path_5955" data-name="Path 5955" d="M823.064,306.564,779.187,350.44V306.564Z" transform="translate(-584.246 -254.913)" fill="#d95f76"/>
              <path id="Path_5956" data-name="Path 5956" d="M616.763,358.139l-43.876,43.876V358.139Z" transform="translate(-568.998 -258.725)" fill="#d95f76"/>
              <path id="Path_5957" data-name="Path 5957" d="M668.339,358.139l-43.876,43.876V358.139Z" transform="translate(-572.81 -258.725)" fill="#d95f76"/>
              <path id="Path_5958" data-name="Path 5958" d="M719.914,358.139l-43.876,43.876V358.139Z" transform="translate(-576.622 -258.725)" fill="#d95f76"/>
              <path id="Path_5959" data-name="Path 5959" d="M771.489,358.139l-43.876,43.876V358.139Z" transform="translate(-580.434 -258.725)" fill="#d95f76"/>
              <path id="Path_5960" data-name="Path 5960" d="M823.064,358.139l-43.876,43.876V358.139Z" transform="translate(-584.246 -258.725)" fill="#d95f76"/>
              <path id="Path_5961" data-name="Path 5961" d="M616.764,409.715l-43.876,43.876V409.715Z" transform="translate(-568.998 -262.537)" fill="#d95f76"/>
              <path id="Path_5962" data-name="Path 5962" d="M668.34,409.715l-43.876,43.876V409.715Z" transform="translate(-572.81 -262.537)" fill="#d95f76"/>
              <path id="Path_5963" data-name="Path 5963" d="M719.915,409.715l-43.876,43.876V409.715Z" transform="translate(-576.622 -262.537)" fill="#d95f76"/>
              <path id="Path_5964" data-name="Path 5964" d="M771.49,409.715l-43.876,43.876V409.715Z" transform="translate(-580.434 -262.537)" fill="#d95f76"/>
              <path id="Path_5965" data-name="Path 5965" d="M823.065,409.715l-43.876,43.876V409.715Z" transform="translate(-584.246 -262.537)" fill="#d95f76"/>
              <path id="Path_5966" data-name="Path 5966" d="M616.765,461.29l-43.876,43.876V461.29Z" transform="translate(-568.998 -266.349)" fill="#d95f76"/>
              <path id="Path_5967" data-name="Path 5967" d="M668.341,461.29l-43.876,43.876V461.29Z" transform="translate(-572.81 -266.349)" fill="#d95f76"/>
              <path id="Path_5968" data-name="Path 5968" d="M719.916,461.29,676.04,505.166V461.29Z" transform="translate(-576.622 -266.349)" fill="#d95f76"/>
              <path id="Path_5969" data-name="Path 5969" d="M771.491,461.29l-43.876,43.876V461.29Z" transform="translate(-580.434 -266.349)" fill="#d95f76"/>
              <path id="Path_5970" data-name="Path 5970" d="M823.066,461.29,779.19,505.166V461.29Z" transform="translate(-584.246 -266.349)" fill="#d95f76"/>
            </g>
          </g>
        </g>
        <g id="Group_7646" data-name="Group 7646" transform="translate(414.635 459.242)">
          <path id="Path_5971" data-name="Path 5971" d="M663.5,277.71a7.008,7.008,0,0,0-7.114-.365c-7.9,3.726-9.85,28.251-17.793,37.309-6.283,7.163,6.27,23.121,20.085,17.23C672.4,326.031,676.074,271.316,663.5,277.71Z" transform="translate(-618.149 -276.565)" fill="#311e69"/>
          <g id="Group_7639" data-name="Group 7639" transform="translate(46.034 88.893)">
            <g id="Group_7638" data-name="Group 7638" transform="translate(11.863 165.721)">
              <path id="Path_5972" data-name="Path 5972" d="M683.091,556.392c1.488,1.321,7.527,9.108,9.643,9.306a8.206,8.206,0,0,0,2.691-.181c-1.351-1.046-2.844-3.523-4.211-6.224a16.989,16.989,0,0,1-1.479-7.794l-6.6.348a3,3,0,0,0-2.788,2.441,11.845,11.845,0,0,1-.265,1.186A4.368,4.368,0,0,1,683.091,556.392Z" transform="translate(-679.235 -551.499)" fill="#ff6161"/>
              <path id="Path_5973" data-name="Path 5973" d="M700.83,568.744a13.425,13.425,0,0,0-4.708-2.468,2.767,2.767,0,0,1-.764-.442,8.206,8.206,0,0,1-2.691.181c-2.116-.2-8.155-7.985-9.643-9.306a4.368,4.368,0,0,0-3.013-.917c-.444,1.3-1.108,3.628-.733,5.09.542,2.111,1.848,8.139,1.648,10.033l2.643-.016-.034-5.5a4.057,4.057,0,0,1,3.072.933,7.37,7.37,0,0,1,1.112,1.943,4.293,4.293,0,0,0,3.983,2.572l8.309-.051A1.192,1.192,0,0,0,700.83,568.744Z" transform="translate(-679.168 -551.816)" fill="#ffb0b0"/>
            </g>
            <path id="Path_5974" data-name="Path 5974" d="M697.319,385.3c.475,1.7,6.021,46.449-8.078,157.654-.445,3.505-10.425-1.364-13.384-7.662-7.958-16.934-13.666-53.093-5.583-85.669,4.344-17.5,1.4-38.329,2.585-46.609,1.052-7.348,4.206-21.7,8-28.807C683.5,369.252,694.753,376.137,697.319,385.3Z" transform="translate(-666.358 -372.552)" fill="#ff6161"/>
            <path id="Path_5975" data-name="Path 5975" d="M699.558,404.9c-5.259,6.387-15.936,20.756-16,32.244-.091,15.244.09,42.412,0,50.035s-5.444,12.868-3.51,25.8c3.51,23.453,9.976,33.952,10.176,32.372C699.581,471.525,700.283,427,699.558,404.9Z" transform="translate(-667.339 -374.943)" fill="#ad263d"/>
            <path id="Path_5976" data-name="Path 5976" d="M689.617,482.7c1.651-8.508-12.742-4.064-23.03.094-.223,4.167-.274,8.3-.174,12.347C673.769,494.592,687.757,492.288,689.617,482.7Z" transform="translate(-666.359 -380.335)" fill="#311e69"/>
          </g>
          <g id="Group_7641" data-name="Group 7641" transform="translate(19.399 89.87)">
            <g id="Group_7640" data-name="Group 7640" transform="translate(7.105 165.231)">
              <path id="Path_5977" data-name="Path 5977" d="M649.195,556.917c1.488,1.322,7.526,9.109,9.642,9.307a8.212,8.212,0,0,0,2.692-.181c-1.351-1.046-2.845-3.523-4.212-6.224a17,17,0,0,1-1.479-7.794l-6.6.348a3,3,0,0,0-2.788,2.441,11.8,11.8,0,0,1-.264,1.185A4.378,4.378,0,0,1,649.195,556.917Z" transform="translate(-645.338 -552.025)" fill="#ff6161"/>
              <path id="Path_5978" data-name="Path 5978" d="M666.933,569.27a13.416,13.416,0,0,0-4.708-2.468,2.761,2.761,0,0,1-.763-.442,8.211,8.211,0,0,1-2.692.181c-2.116-.2-8.154-7.986-9.642-9.307a4.378,4.378,0,0,0-3.013-.917c-.444,1.3-1.109,3.628-.733,5.09.542,2.111,1.848,8.14,1.648,10.034l2.643-.016-.033-5.5a4.062,4.062,0,0,1,3.072.933,7.383,7.383,0,0,1,1.112,1.943,4.293,4.293,0,0,0,3.982,2.573l8.309-.051A1.192,1.192,0,0,0,666.933,569.27Z" transform="translate(-645.271 -552.342)" fill="#ffb0b0"/>
            </g>
            <path id="Path_5979" data-name="Path 5979" d="M678.5,387.6c.311,1.733,1.566,46.812-23.068,156.167-.776,3.447-10.247-2.351-12.592-8.9-6.308-17.616-8.544-54.154,2.608-85.812,5.992-17.009,5.046-38.022,7.015-46.151,1.747-7.213,6.254-21.2,10.707-27.913C666.279,370.311,676.821,378.237,678.5,387.6Z" transform="translate(-637.598 -373.608)" fill="#ff6161"/>
            <path id="Path_5980" data-name="Path 5980" d="M678.972,407.345c-5.845,5.857-17.842,19.142-19,30.571-1.543,15.168-3.953,42.228-4.768,49.807s-6.647,12.292-5.953,25.348c1.259,23.681,6.695,34.749,7.045,33.194C672.644,473.671,677.587,429.411,678.972,407.345Z" transform="translate(-638.455 -376.101)" fill="#ad263d"/>
            <path id="Path_5981" data-name="Path 5981" d="M662.327,483.826c2.454-8.312-12.3-5.259-22.934-2.1-.62,4.128-1.064,8.234-1.35,12.274C645.417,494.156,659.562,493.195,662.327,483.826Z" transform="translate(-637.631 -381.358)" fill="#311e69"/>
          </g>
          <path id="Path_5982" data-name="Path 5982" d="M677.516,303.89c10.391,7.417,24.413,28.167,28.945,26.58,5.445-1.906,17.181-26.822,24.1-23.2,6.531,3.416-6.936,39.209-22.278,42.037-20.422,3.766-39.169-35.9-40.2-39.978C665.973,301.04,673.572,301.075,677.516,303.89Z" transform="translate(-620.425 -278.459)" fill="#ad263d"/>
          <path id="Path_5983" data-name="Path 5983" d="M665.276,277.253c.94,3.12,1.52,7.869-1.423,12.177-3.14,4.6-13.24,11.484-20.138,15.868a32.109,32.109,0,0,1-5.127,9.407c-6.283,7.163,6.27,23.121,20.085,17.23C671.7,326.377,675.674,276.778,665.276,277.253Z" transform="translate(-618.149 -276.616)" fill="#1e1240"/>
          <g id="Group_7642" data-name="Group 7642" transform="translate(47.289 23.729)">
            <path id="Path_5984" data-name="Path 5984" d="M696.883,323.485c-5.943-6.325-13.278-15.249-19.367-19.6-3.943-2.815-11.543-2.85-9.441,5.434.654,2.576,8.376,19.351,19.124,30.41C693.808,335.6,696.093,328.089,696.883,323.485Z" transform="translate(-667.714 -302.188)" fill="#d8e7eb"/>
          </g>
          <path id="Path_5985" data-name="Path 5985" d="M677.905,327.685c4.766,7.408,11.063,15.259,18.077,19.527-2.206-9.06-16.324-33.1-16.324-33.1Z" transform="translate(-621.178 -279.34)" fill="#311e69"/>
          <path id="Path_5986" data-name="Path 5986" d="M690.655,349.633A120.241,120.241,0,0,1,685.3,337.95c-2.017-8.956-4.23-14.075-3.681-15.748,1.9-5.8,1.571-9.814.973-10.92a14.609,14.609,0,0,0-2.081-2.447c-1.315-1.275-5.626-5.268-8.775-6.735-10.93-5.089-21.955,1.117-22.623,4.62-.683,3.583,4.367,18.8,5.114,22.849a20.852,20.852,0,0,1,.266,7.311,113.143,113.143,0,0,1-5.346,10C655.026,348.44,673,352.519,690.655,349.633Z" transform="translate(-619.045 -278.31)" fill="#f0f8fa"/>
          <path id="Path_5987" data-name="Path 5987" d="M692.005,350.444a126.8,126.8,0,0,1-5.766-12.489c-2.017-8.956-4.23-14.075-3.681-15.748,1.9-5.8,1.571-9.814.973-10.92a14.606,14.606,0,0,0-2.081-2.447c-1.315-1.275-5.626-5.268-8.775-6.735a20.467,20.467,0,0,0-7.139-1.868c3.516,3.018,9.967,8.726,11.468,11.228,2.09,3.484,1.95,8.988-3.693,9.893s-12.15-.487-11.475,3.066,15.307,8.639,17.119,13.1,1.6,15.329,6.828,21.042c2.953,3.229,7.8,5.322,11.452,6.533A81.624,81.624,0,0,0,692.005,350.444Z" transform="translate(-619.987 -278.315)" fill="#d8e7eb"/>
          <path id="Path_5988" data-name="Path 5988" d="M688.821,354.167c-.138-.269-.273-.537-.409-.807-17.659,2.887-35.629-1.193-41.509-2.75-5.3,9.34-12.861,22.2-14.7,25.4a38.275,38.275,0,0,0-5.321,19.7c.148,8.079,7.152,56.388-8.176,81.388,21.653,4.3,36.923,6.725,51.559,4.5,17.228-2.614,24.661-8.836,26.469-9.36C707.335,398.581,692.128,360.633,688.821,354.167Z" transform="translate(-616.803 -282.038)" fill="#311e69"/>
          <path id="Path_5989" data-name="Path 5989" d="M700.051,472.455c10.6-73.655-4.607-111.6-7.914-118.068-.138-.269-.273-.537-.409-.807a84.555,84.555,0,0,1-16.454.947c.783,4.919,1.854,10.525,3.325,16.622,5.3,21.946.279,35.6-6.688,59.291-4.062,13.811-6.783,36.049-8.346,52.2a75.578,75.578,0,0,0,10.018-.822C690.811,479.2,698.243,472.979,700.051,472.455Z" transform="translate(-620.118 -282.257)" fill="#1e1240"/>
          <path id="Path_5990" data-name="Path 5990" d="M655.894,314.1c-5.112,13.814-22.521,35.074-20.033,39.924,2.99,5.827,30.488,3.867,28.375,12.741-1.994,8.378-40.491,10.989-46.426-6.048-7.9-22.681,27.041-54.01,30.819-56.2C656.3,300.072,657.835,308.861,655.894,314.1Z" transform="translate(-616.651 -278.541)" fill="#ff6161"/>
          <path id="Path_5991" data-name="Path 5991" d="M662.683,290.522l1.718,6.894c.37,1.51,6.868,5.544,2.789,7.961-1.521.9-7.906-3.452-7.618-5.179l-.063-8.323Z" transform="translate(-619.818 -277.597)" fill="#ff6161"/>
          <path id="Path_5992" data-name="Path 5992" d="M654.39,330.243c.075.407.142.821.2,1.235,5.385-5.445,3.86-22.184,3.86-22.184l-7.177,9.266C652.551,323.347,654.014,328.207,654.39,330.243Z" transform="translate(-619.21 -278.984)" fill="#311e69"/>
          <path id="Path_5993" data-name="Path 5993" d="M663.848,294.823l.726,2.911a.9.9,0,0,0,.051.147c-1.154-.246-2.583-.76-2.77-1.813C661.7,295.212,662.731,294.907,663.848,294.823Z" transform="translate(-619.991 -277.914)" fill="#311e69"/>
          <path id="Path_5994" data-name="Path 5994" d="M636.681,355.444c-2.1-4.091,9.957-19.854,16.851-32.979-7.093,5.692-22.239,18-23.959,20.706-2.255,3.543-3.091,8.563,1.437,12.1,1.936,1.512,5.422,2.181,8.782,2.453A5.745,5.745,0,0,1,636.681,355.444Z" transform="translate(-617.471 -279.957)" fill="#ad263d"/>
          <path id="Path_5995" data-name="Path 5995" d="M733.813,308.373s-.371,3.243.766,4.583,4.3.959,4.576.155-.744-3.832-.744-3.832Z" transform="translate(-625.306 -278.916)" fill="#ad263d"/>
          <g id="Group_7644" data-name="Group 7644" transform="translate(37.963 6.598)">
            <path id="Path_5996" data-name="Path 5996" d="M659.685,288.85a5.428,5.428,0,0,0,3,6.925,4.655,4.655,0,0,0,6.32-3.262c.9-2.852-.686-5.768-1.183-7.231-.742-2.189-1.97-2.1-3.507.131C663.4,286.744,659.685,288.85,659.685,288.85Z" transform="translate(-657.77 -283.69)" fill="#ff6161"/>
            <path id="Path_5997" data-name="Path 5997" d="M659.737,289.467a4.55,4.55,0,0,1-.327-.907c-.155-.594-.521-1.439-1.289-.777-1.117.963-.119,4.079,1.41,3.939C660.667,291.617,660.1,290.193,659.737,289.467Z" transform="translate(-657.644 -283.975)" fill="#ff6161"/>
            <path id="Path_5998" data-name="Path 5998" d="M666,291.246a9.086,9.086,0,0,0,3.172-.453,1.956,1.956,0,0,1-.5,1.39C668.029,292.729,666.738,292.7,666,291.246Z" transform="translate(-658.262 -284.215)" fill="#fff"/>
            <g id="Group_7643" data-name="Group 7643" transform="translate(1.735 8.35)">
              <path id="Path_5999" data-name="Path 5999" d="M663.236,295.343a7.113,7.113,0,0,0,3.946-.32,7.374,7.374,0,0,0,1.877-2c-.016.053-.025.106-.042.158a4.655,4.655,0,0,1-6.32,3.263,5.21,5.21,0,0,1-3.181-3.736A6.724,6.724,0,0,0,663.236,295.343Z" transform="translate(-659.517 -292.706)" fill="#ad263d"/>
            </g>
          </g>
          <path id="Path_6000" data-name="Path 6000" d="M659.511,299.572s5.459,4.549,6.369,4.075c.867-.451-.247-3.9-.247-3.9a7.758,7.758,0,0,1,2.846,1.861l2.035,4.558-3.046-.338-2.455,1.754s-6.2-3.937-6.2-5.26A7.336,7.336,0,0,1,659.511,299.572Z" transform="translate(-619.767 -278.265)" fill="#fff"/>
          <g id="Group_7645" data-name="Group 7645" transform="translate(6.422 24.762)">
            <path id="Path_6001" data-name="Path 6001" d="M638.745,345.676c4.626-8.786,14.109-21.973,17.661-31.572,1.941-5.243.407-14.032-7.265-9.584-2.363,1.371-16.919,14.142-25.556,29.065C625.3,337.9,629.461,344.742,638.745,345.676Z" transform="translate(-623.585 -303.303)" fill="#f0f8fa"/>
          </g>
          <path id="Path_6002" data-name="Path 6002" d="M738.751,310.676c-1.858-.046-5.528,7.479-5.017,9.894s5.017,2.462,5.017,2.462,4.505-.046,5.017-2.462S740.609,310.63,738.751,310.676Z" transform="translate(-625.301 -279.086)" fill="#bf7d3b"/>
          <path id="Path_6003" data-name="Path 6003" d="M653.583,303.318c.239,1.93,1.094,10.528-2.2,13.539-3.716,3.4-3.716-1.646-7.432,5.6s-5.853,11.958-8.826,14.591a70.135,70.135,0,0,0-5.409,4.712,16.954,16.954,0,0,0,9.479,3.922c4.626-8.786,14.109-21.973,17.661-31.572C658.4,309.945,657.748,303.559,653.583,303.318Z" transform="translate(-617.617 -278.542)" fill="#d8e7eb"/>
          <path id="Path_6004" data-name="Path 6004" d="M743.822,315.4a2.665,2.665,0,1,0-3.207,3.172l1.5,6.645a.758.758,0,0,0,.907.572l.2-.044a.763.763,0,0,0,.479-.342l.455-.738a.759.759,0,0,0,.095-.564L744,323.022l-.544.122-.1-.431.544-.122-.164-.725-.589.133.487-.586-.844-.571.68-.154-.592-2.626A2.657,2.657,0,0,0,743.822,315.4Zm-3.033-1.334a.621.621,0,1,1-.469.743A.621.621,0,0,1,740.789,314.068Z" transform="translate(-625.661 -279.282)" fill="#f0f8fa"/>
          <path id="Path_6005" data-name="Path 6005" d="M732.392,307.74s2.495-3.065,4.616-3.483,6.021,1.811,6.533,3.112-.279,3.391-1.254,3.251-2.136-1.533-2.136-1.533,1.385,3.636-.372,3.159c-1.15-.313-3.065-3.624-3.53-3.205S730.952,309.737,732.392,307.74Z" transform="translate(-625.185 -278.608)" fill="#ad263d"/>
          <path id="Path_6006" data-name="Path 6006" d="M648.307,369.544c-9.616,1.663-6.828-1.087-15.19-4.46s-5.3-.823-10.939-3.241c-2.58-1.106-4.3-4-5.406-6.81a22.358,22.358,0,0,0,1.038,9.512c5.934,17.037,44.432,14.427,46.426,6.048a3.472,3.472,0,0,0-.171-2.287C660.681,367.669,655.36,368.324,648.307,369.544Z" transform="translate(-616.651 -282.365)" fill="#ad263d"/>
          <path id="Path_6007" data-name="Path 6007" d="M663.143,367.277s7.048-.725,9.1-.165c3.015.823,7.021,4.032,6.184,5.6s-13.411,1.728-14.833,0S663.143,367.277,663.143,367.277Z" transform="translate(-620.063 -283.242)" fill="#ff6161"/>
        </g>
        <path id="Path_6008" data-name="Path 6008" d="M708.977,361.279a3.158,3.158,0,1,0-6.294-.366,2.994,2.994,0,0,0,.037.366,13.913,13.913,0,0,0-10.788,13.55h27.832A13.913,13.913,0,0,0,708.977,361.279Z" transform="translate(-207.58 176.677)" fill="#ffd140"/>
        <g id="Group_7650" data-name="Group 7650" transform="translate(347.445 559.518)">
          <rect id="Rectangle_837" data-name="Rectangle 837" width="323.881" height="17.963" transform="translate(114.3)" fill="#ff8f8f"/>
          <rect id="Rectangle_838" data-name="Rectangle 838" width="118.539" height="17.963" transform="translate(0)" fill="#d95f76"/>
          <rect id="Rectangle_839" data-name="Rectangle 839" width="91.446" height="170.198" transform="translate(16.042 17.963)" fill="#ff8f8f"/>
          <rect id="Rectangle_840" data-name="Rectangle 840" width="310.16" height="170.198" transform="translate(106.978 17.963)" fill="#ffc7c7"/>
          <g id="Group_7649" data-name="Group 7649" transform="translate(164.277 72.191)">
            <g id="Group_7647" data-name="Group 7647">
              <path id="Path_6009" data-name="Path 6009" d="M724.53,452.537h10.261v17.489h15.667V452.537h10.26v45.385h-10.26V478.975H734.791v18.947H724.53Z" transform="translate(-724.53 -451.702)" fill="#d95f76"/>
              <path id="Path_6010" data-name="Path 6010" d="M772.858,474.966c0-14.828,8.373-23.331,20.612-23.331s20.613,8.561,20.613,23.331c0,14.829-8.373,23.725-20.613,23.725S772.858,489.795,772.858,474.966Zm30.71,0c0-9.1-3.906-14.472-10.1-14.472s-10.1,5.372-10.1,14.472,3.906,14.866,10.1,14.866S803.568,484.066,803.568,474.966Z" transform="translate(-728.102 -451.635)" fill="#d95f76"/>
              <path id="Path_6011" data-name="Path 6011" d="M833.112,461.142H820.62v-8.605h35.244v8.605H843.372v36.78h-10.26Z" transform="translate(-731.632 -451.702)" fill="#d95f76"/>
              <path id="Path_6012" data-name="Path 6012" d="M866.345,452.537h28.438v8.605H876.606v9.114h15.473v8.6H876.606v10.456h18.873v8.605H866.345Z" transform="translate(-735.012 -451.702)" fill="#d95f76"/>
              <path id="Path_6013" data-name="Path 6013" d="M907.543,452.537H917.8v36.78h17.914v8.605H907.543Z" transform="translate(-738.056 -451.702)" fill="#d95f76"/>
            </g>
            <g id="Group_7648" data-name="Group 7648" transform="translate(6.728)">
              <path id="Path_6014" data-name="Path 6014" d="M731.795,452.537h10.261v17.489h15.667V452.537h10.261v45.385H757.723V478.975H742.056v18.947H731.795Z" transform="translate(-731.795 -451.702)" fill="#ff8f8f"/>
              <path id="Path_6015" data-name="Path 6015" d="M780.123,474.966c0-14.828,8.373-23.331,20.613-23.331s20.612,8.561,20.612,23.331c0,14.829-8.373,23.725-20.612,23.725S780.123,489.795,780.123,474.966Zm30.711,0c0-9.1-3.907-14.472-10.1-14.472s-10.1,5.372-10.1,14.472,3.906,14.866,10.1,14.866S810.834,484.066,810.834,474.966Z" transform="translate(-735.367 -451.635)" fill="#ff8f8f"/>
              <path id="Path_6016" data-name="Path 6016" d="M840.377,461.142H827.885v-8.605h35.244v8.605H850.638v36.78H840.377Z" transform="translate(-738.897 -451.702)" fill="#ff8f8f"/>
              <path id="Path_6017" data-name="Path 6017" d="M873.61,452.537h28.438v8.605H883.871v9.114h15.474v8.6H883.871v10.456h18.873v8.605H873.61Z" transform="translate(-742.276 -451.702)" fill="#ff8f8f"/>
              <path id="Path_6018" data-name="Path 6018" d="M914.809,452.537h10.26v36.78h17.914v8.605H914.809Z" transform="translate(-745.322 -451.702)" fill="#ff8f8f"/>
            </g>
          </g>
          <path id="Path_6019" data-name="Path 6019" d="M662.657,393.08l310.16,14.271V393.08Z" transform="translate(-555.68 -375.117)" fill="#311e69"/>
        </g>
        <g id="Group_7653" data-name="Group 7653" transform="translate(160.87 352.743)">
          <g id="Group_7651" data-name="Group 7651" transform="translate(63.375 317.366)">
            <path id="Path_6020" data-name="Path 6020" d="M510.462,507.394c-8.226-15.61-50.44-14.265-50.44-14.265s-42.213-1.345-50.439,14.265c-1.23,2.334,0,12.178,0,12.178,8.972,56.713,50.439,50.8,50.439,50.8s41.468,5.915,50.44-50.8C510.462,519.572,511.691,509.728,510.462,507.394Z" transform="translate(-409.037 -493.1)" fill="#614cd4"/>
            <ellipse id="Ellipse_115" data-name="Ellipse 115" cx="47.43" cy="12.32" rx="47.43" ry="12.32" transform="translate(3.555 3.585)" fill="#311e69"/>
            <path id="Path_6021" data-name="Path 6021" d="M505.726,524.649c-5.745,5.481-23.305,10.438-26.587,10.438s-3.611,9.917-6.893,13.831-10.012,4.7-19.694,8.089c-6.466,2.265-24.117-6.863-33.576-9.066,15.2,27.612,41.781,23.853,41.781,23.853s41.468,5.915,50.44-50.8a73.348,73.348,0,0,0,.537-8.622C510.571,516.716,508.667,521.843,505.726,524.649Z" transform="translate(-409.771 -494.524)" fill="#311e69"/>
          </g>
          <path id="Path_6022" data-name="Path 6022" d="M515.352,276.936a2.129,2.129,0,1,0-3.5-2.425c-1.165,1.681-28.55,41.43-31.242,64.584-1.749,15.045-6.821,63.093-10.45,103.183Q469,446.159,467.926,450c.751-11.347,1.48-23.768,2.044-36.271,3.979-88.325-4.056-94.72-6.7-96.821a18.637,18.637,0,0,0-2.993-1.942c.083-16.085.086-27.686.086-28.012a2.129,2.129,0,1,0-4.258,0c0,.316,0,11.188-.078,26.457-10.018-2.217-19.615,4.955-20.113,5.333a2.13,2.13,0,0,0,2.583,3.387c.106-.081,9.015-6.756,17.506-4.3-.166,29.627-.6,72.283-1.757,89.247-1.847,27.159-1.868,91.578-1.868,92.227a2.129,2.129,0,0,0,4.258,0c0-.646.021-64.922,1.859-91.938,1.133-16.659,1.579-57.836,1.754-87.4.123.092.247.174.369.271,2.7,2.147,8.6,15.535,5.1,93.282-1.067,23.683-2.729,47.07-4.016,63.4a109.621,109.621,0,0,0-1.88,22.477,2.129,2.129,0,0,0,2.073,2.04h.055a2.129,2.129,0,0,0,2.119-1.931c.018-.188.807-8.688,1.85-21.882.585-3.384,1.3-6.9,2.11-10.5-1.209,15.126-1.943,27.016-1.8,32.244a2.128,2.128,0,0,0,2.127,2.073h.058a2.13,2.13,0,0,0,2.071-2.186c-.2-7.677,1.508-29.991,3.841-55.8,13.207-43.982,34.464-91.1,34.78-91.794a2.129,2.129,0,1,0-3.878-1.76c-1.107,2.44-16.475,36.5-29.04,73.556,3.341-35.011,7.184-71.19,8.658-83.875C487.411,317.488,515.073,277.34,515.352,276.936Z" transform="translate(-347.587 -159.511)" fill="#146544"/>
          <path id="Path_6023" data-name="Path 6023" d="M421.775,280.263c5,9.924,12.728,18.343,26.345,15.859,7.9-1.441,7.228-12.156,8.962-11.023,13.309,8.7,21.784,4.582,26.44-2.485,10.647-16.16,13.309-71-7.985-87.141s-70.981-40.732-79.5-25.6C388.8,182.75,404.648,246.264,421.775,280.263Z" transform="translate(-344.569 -151.495)" fill="#2ebf84"/>
          <path id="Path_6024" data-name="Path 6024" d="M484.139,215.22s-1.346-2.625-2.939-6.229c-3.664-8.286-12.9-21.56-40.5-18.676-8.355.873-17.061,8.889-25.764,18.935-1.7,1.966-7.139-7.334-8.84-5.25-1.109,1.359,1.516,14.078.41,15.461-4.284,5.353-8.539,10.8-12.723,15.718-1.332,1.567-6.955-7.619-8.272-6.179-.913,1,2.476,12.662,1.572,13.584-6.3,6.422-12.378,10.809-18.075,10.9-11.367.19-23.441-22.441-27.209-46.426-.268-1.7,8.047-7.587,7.866-9.293-.223-2.111-8.917-.039-9-2.132-.649-17.067,3.678-33.087,16.271-40.22C389.945,136.725,484.034,173.36,484.139,215.22Z" transform="translate(-340.604 -150.406)" fill="#4cd4ac"/>
          <path id="Path_6025" data-name="Path 6025" d="M557,303.2s-42.588,3.716-55.365,11.573c-4.421,2.719-9.735,7.844-14.463,13.67-.73.9,3.89,5.073,3.194,6-.808,1.075-6.925-1.094-7.673,0-6.5,9.5-10.381,19.33-6.08,23.058,7.986,6.921,33.431,2.12,33.431,2.12s30.718,14.65,44.027-1.587c3.327-4.059,5.173-9.516,6.072-15.418.2-1.325-6.184-.346-6.072-1.706s6.723-5.082,6.758-6.467C561.211,318.869,557,303.2,557,303.2Z" transform="translate(-350.523 -161.699)" fill="#2ebf84"/>
          <g id="Group_7652" data-name="Group 7652" transform="translate(124.275 78.15)">
            <path id="Path_6026" data-name="Path 6026" d="M573.556,243.586a68.568,68.568,0,0,1,11.071,6.59c1.008.745-3.287,3.016-2.311,3.861.86.745,7,.053,7.786.868,6.47,6.707,9.62,15.64-3.377,24.671-10.291,7.152-92.167-41.7-70.032-42.036C540.608,237.173,573.556,243.586,573.556,243.586Z" transform="translate(-477.615 -234.995)" fill="#2ebf84"/>
            <path id="Path_6027" data-name="Path 6027" d="M513.993,275.944s-13.954,8.605-30.931,4.186c-11.45-2.979-9.418-17.93-3.419-29.05.616-1.141,9.2-3.789,9.89-4.831.593-.9-6.719-.206-6.086-1.008a20.587,20.587,0,0,1,6.593-5.81c25.233-12.385,80.7,3.954,80.7,3.954a7.824,7.824,0,0,0-6.89,3.721c-1.671,2.618-2.956,6.363-4.163,10.556-.413,1.437-5.2-2.193-5.607-.677-.393,1.461,3.593,8.067,3.184,9.552C553.85,278.9,549.472,291.2,537.715,289.2,514.458,285.246,513.993,275.944,513.993,275.944Z" transform="translate(-474.798 -234.793)" fill="#4cd4ac"/>
          </g>
          <path id="Path_6028" data-name="Path 6028" d="M503.773,314.4s21.412-8.379,39.852-2.524,44.306,17.035,57.326,12.244.243-22.891-12.268-25.287-25.02,2.4-40.192,2.4S507.765,309.2,503.773,314.4Z" transform="translate(-352.664 -161.326)" fill="#4cd4ac"/>
          <path id="Path_6029" data-name="Path 6029" d="M433.679,321.453s9.582-14.906-25.553-12.244c-9.705.734-19.269,5.228-27.933,11.733-1.1.829,5.049,1.4,3.977,2.286-1.157.959-9.534,2.247-10.651,3.269a110.6,110.6,0,0,0-16.286,18.871c-.917,1.338,6.3,1.2,5.466,2.538-.906,1.452-9.861,4.39-10.667,5.833-6.262,11.221-9.389,21.909-7.788,28.4,2.157,8.755,33.524,4.046,57.228-2.663,5.056-1.43,1.1-6.992,6.122-8.783,3.417-1.22,6.649,4.035,9.909,2.695,16.588-6.817,30.408-14.941,34.01-21.86C461.628,332.1,449.384,320.388,433.679,321.453Z" transform="translate(-340.843 -162.119)" fill="#4cd4ac"/>
        </g>
        <g id="Group_7655" data-name="Group 7655" transform="translate(389.322 364.756)">
          <g id="Group_7654" data-name="Group 7654" transform="translate(0)">
            <path id="Path_6030" data-name="Path 6030" d="M616.331,224.489l.386-49.95H610.45c-11.681,0-21.133,11-21.133,24.975s9.371,24.975,21.051,24.975Z" transform="translate(-589.317 -174.539)" fill="#311e69"/>
            <ellipse id="Ellipse_116" data-name="Ellipse 116" cx="21.149" cy="24.975" rx="21.149" ry="24.975" transform="translate(6.058 0)" fill="#fff"/>
            <path id="Path_6031" data-name="Path 6031" d="M617.007,176.33c10.675,0,19.359,10.4,19.359,23.184S627.682,222.7,617.007,222.7s-19.358-10.4-19.358-23.184,8.684-23.184,19.358-23.184m0-1.791c-11.68,0-21.149,11.182-21.149,24.975s9.469,24.975,21.149,24.975,21.15-11.182,21.15-24.975-9.469-24.975-21.15-24.975Z" transform="translate(-589.8 -174.539)" fill="#311e69"/>
          </g>
          <path id="Path_6032" data-name="Path 6032" d="M615.859,199.561l6.573-15.921-1.349,17.172a2.719,2.719,0,1,1-5.421-.425A2.758,2.758,0,0,1,615.859,199.561Z" transform="translate(-591.263 -175.212)" fill="#311e69"/>
          <path id="Path_6033" data-name="Path 6033" d="M618.105,198.721l10.187-1.219-8.175,6.2a2.783,2.783,0,1,1-2.012-4.981Z" transform="translate(-591.264 -176.236)" fill="#311e69"/>
        </g>
        <g id="Group_7657" data-name="Group 7657" transform="translate(465.305 364.756)">
          <g id="Group_7656" data-name="Group 7656" transform="translate(0)">
            <path id="Path_6034" data-name="Path 6034" d="M698.379,224.489l.386-49.95H692.5c-11.681,0-21.133,11-21.133,24.975s9.371,24.975,21.051,24.975Z" transform="translate(-671.365 -174.539)" fill="#311e69"/>
            <ellipse id="Ellipse_117" data-name="Ellipse 117" cx="21.149" cy="24.975" rx="21.149" ry="24.975" transform="translate(6.058 0)" fill="#fff"/>
            <path id="Path_6035" data-name="Path 6035" d="M699.056,176.33c10.674,0,19.358,10.4,19.358,23.184S709.73,222.7,699.056,222.7,679.7,212.3,679.7,199.514s8.684-23.184,19.359-23.184m0-1.791c-11.681,0-21.15,11.182-21.15,24.975s9.469,24.975,21.15,24.975,21.149-11.182,21.149-24.975-9.469-24.975-21.149-24.975Z" transform="translate(-671.848 -174.539)" fill="#311e69"/>
          </g>
          <path id="Path_6036" data-name="Path 6036" d="M701.64,203.241l-13.39,8.679L698,199.289a2.725,2.725,0,1,1,4.314,3.33A2.812,2.812,0,0,1,701.64,203.241Z" transform="translate(-672.613 -176.29)" fill="#311e69"/>
          <path id="Path_6037" data-name="Path 6037" d="M698.2,199.313l2.878-13.855,2.493,13.93a2.736,2.736,0,0,1-5.386.964A2.774,2.774,0,0,1,698.2,199.313Z" transform="translate(-673.344 -175.346)" fill="#311e69"/>
        </g>
        <g id="Group_7659" data-name="Group 7659" transform="translate(541.289 364.756)">
          <g id="Group_7658" data-name="Group 7658">
            <path id="Path_6038" data-name="Path 6038" d="M780.427,224.489l.386-49.95h-6.267c-11.681,0-21.133,11-21.133,24.975s9.371,24.975,21.051,24.975Z" transform="translate(-753.413 -174.539)" fill="#311e69"/>
            <ellipse id="Ellipse_118" data-name="Ellipse 118" cx="21.149" cy="24.975" rx="21.149" ry="24.975" transform="translate(6.058 0)" fill="#fff"/>
            <path id="Path_6039" data-name="Path 6039" d="M781.1,176.33c10.674,0,19.358,10.4,19.358,23.184S791.778,222.7,781.1,222.7s-19.359-10.4-19.359-23.184S770.43,176.33,781.1,176.33m0-1.791c-11.681,0-21.15,11.182-21.15,24.975s9.469,24.975,21.15,24.975,21.149-11.182,21.149-24.975-9.469-24.975-21.149-24.975Z" transform="translate(-753.896 -174.539)" fill="#311e69"/>
          </g>
          <path id="Path_6040" data-name="Path 6040" d="M785.257,201.253l-2.768,10.634-2.6-10.676a2.77,2.77,0,0,1,5.382-1.313A2.8,2.8,0,0,1,785.257,201.253Z" transform="translate(-755.364 -176.257)" fill="#311e69"/>
          <path id="Path_6041" data-name="Path 6041" d="M782.8,197.786l17.215.712-16.6,4.625a2.72,2.72,0,0,1-1.46-5.24A2.8,2.8,0,0,1,782.8,197.786Z" transform="translate(-755.375 -176.257)" fill="#311e69"/>
        </g>
        <g id="Group_7668" data-name="Group 7668" transform="translate(575.151 445.709)">
          <path id="Path_6042" data-name="Path 6042" d="M787.8,306.678c-16.093,7.717-31.941,57.515-31.941,57.515s-5.128-32.139-14.624-33.386-15.357,61.611,8.1,65.652c29.532,5.087,43.36-44.632,43.36-44.632S798.039,301.768,787.8,306.678Z" transform="translate(-731.211 -274.169)" fill="#311e69"/>
          <g id="Group_7660" data-name="Group 7660" transform="translate(97.518 285.553)">
            <path id="Path_6043" data-name="Path 6043" d="M849.854,578.375a2.778,2.778,0,0,0,.454-.518,6.7,6.7,0,0,0,.692-1.475,6.493,6.493,0,0,1,6.16-4.5l3.962.013a20.768,20.768,0,0,0,1.477,6.466c-1.948,1.3-6.865,4.442-9.016,4.531C851.4,582.985,852.5,579.72,849.854,578.375Z" transform="translate(-834.085 -571.884)" fill="#ffd6d6"/>
            <path id="Path_6044" data-name="Path 6044" d="M843.814,581.37c2.448-1.021,4.319-1.784,5.283-2.684,2.651,1.346,1.549,4.611,3.729,4.52,2.151-.09,7.069-3.232,9.016-4.531a14.323,14.323,0,0,0,1.271,2.349c2.164,3.216,3.8,6.068,1.444,7.385-4.5,2.519-31.562,2.51-31.226-.1C833.532,586.734,839.213,583.712,843.814,581.37Z" transform="translate(-833.328 -572.195)" fill="#311e69"/>
          </g>
          <g id="Group_7661" data-name="Group 7661" transform="translate(46.73 285.553)">
            <path id="Path_6045" data-name="Path 6045" d="M796.628,578.375a2.779,2.779,0,0,0,.454-.518,6.753,6.753,0,0,0,.692-1.475,6.492,6.492,0,0,1,6.16-4.5l3.962.013a20.8,20.8,0,0,0,1.476,6.466c-1.947,1.3-6.864,4.442-9.015,4.531C798.177,582.985,799.279,579.72,796.628,578.375Z" transform="translate(-780.859 -571.884)" fill="#ffd6d6"/>
            <path id="Path_6046" data-name="Path 6046" d="M790.588,581.37c2.449-1.021,4.319-1.784,5.284-2.684,2.651,1.346,1.549,4.611,3.729,4.52,2.151-.09,7.069-3.232,9.015-4.531a14.343,14.343,0,0,0,1.272,2.349c2.164,3.216,3.8,6.068,1.443,7.385-4.5,2.519-31.561,2.51-31.225-.1C780.306,586.734,785.986,583.712,790.588,581.37Z" transform="translate(-780.102 -572.195)" fill="#311e69"/>
          </g>
          <path id="Path_6047" data-name="Path 6047" d="M792.917,384.019c21.445,3.993,43.363,2.621,51.845,1.84.533,2.019,1.132,4.133,1.823,6.371,7.438,24.1-2.872,71.263-.885,94.908,1.756,20.9,31.61,81.648,9.115,81.648-44.3,0-39.274-109.755-42.216-120.856-5.46,11.588-8.087,27.373-7.8,40.722.438,20.345,11.73,81.4-.822,81.4-37.078,0-25.62-143.19-18.412-166.328C787.594,397.208,790.288,390.4,792.917,384.019Z" transform="translate(-733.278 -277.727)" fill="#311e69"/>
          <path id="Path_6048" data-name="Path 6048" d="M783.23,399.029c-1-6.909,2.923-21.819,2.768-35.147-.153-13.156-.462-34.813-.715-47.607a12.005,12.005,0,0,1,8.006-11.611c18.662-6.5,46.752-10.769,63.3,12.939,9.052,12.969-1.125,41.008-2.444,47.348-1.592,7.651-4.03,21.209-4.156,33.136-4.844,6.391-17.584,13.643-31.77,12.621-3.114-.224-7.042-9.561-10.288-10.063-2.012-.31-5.687,8.319-7.72,7.892C795.327,407.515,784.938,404.439,783.23,399.029Z" transform="translate(-733.508 -273.858)" fill="#614cd4"/>
          <path id="Path_6049" data-name="Path 6049" d="M832.7,304.04l-13.215,53.47-8.594,11.784-4.811-15.857s.811-24.642,1.035-26.309C808,320.584,812.721,291.272,832.7,304.04Z" transform="translate(-734.562 -273.917)" fill="#ffbaba"/>
          <path id="Path_6050" data-name="Path 6050" d="M816.471,286.161s-2.659-18.912,10.143-12.029c7.3,3.924,5.856,9.336,5.174,13.233s-2.431,3.9-7.848,3.809A8.573,8.573,0,0,1,816.471,286.161Z" transform="translate(-735.027 -272.624)" fill="#858585"/>
          <g id="Group_7662" data-name="Group 7662" transform="translate(81.218 1.245)">
            <path id="Path_6051" data-name="Path 6051" d="M826.614,274.192c-.184-.1-.354-.175-.532-.263.778,1.11,1.592,2.721.759,3.822-1.207,1.595-6.648-.654-10.311.937a28.636,28.636,0,0,0-.059,7.533,8.573,8.573,0,0,0,7.468,5.013c5.417.094,7.167.088,7.848-3.809S833.914,278.116,826.614,274.192Z" transform="translate(-816.245 -273.929)" fill="#363636"/>
          </g>
          <path id="Path_6052" data-name="Path 6052" d="M829.071,288.018l4.23,13.492c-.021,1.946-10.593,7.138-13.616,4.617-.886-.739-.6-2.6.287-4.6l5.248-10.9Z" transform="translate(-735.16 -273.329)" fill="#ff6161"/>
          <path id="Path_6053" data-name="Path 6053" d="M824.242,293c2.152-.338,5.089-.838,5.089-.838a9.269,9.269,0,0,1-3.292,5.923,8.884,8.884,0,0,1-5.224,2.035Z" transform="translate(-735.237 -273.519)" fill="#311e69"/>
          <path id="Path_6054" data-name="Path 6054" d="M745.66,336.81s1.871-4.408-.16-7.073-1.691-6.442-2.968-6.931-.515,3.867-.889,4.684-4.163-1.306-6.671-4.3-1.584,1.588-1.584,1.588-2.048-1.59-2.24.661a9.425,9.425,0,0,0,1.133,4.625s-1.431-.276.173,1.865S741.734,341.035,745.66,336.81Z" transform="translate(-731.129 -274.894)" fill="#ff6161"/>
          <path id="Path_6055" data-name="Path 6055" d="M858.362,317.685A40.116,40.116,0,0,0,835.5,301.334c1.186,5.6,4.266,21.464,3.391,31.583-1.025,11.863-18.409,62.65-17.05,77.942,13.43.3,25.285-6.578,29.916-12.689.126-11.928,2.564-25.486,4.156-33.136C857.237,358.693,867.413,330.654,858.362,317.685Z" transform="translate(-735.28 -273.939)" fill="#311e69"/>
          <path id="Path_6056" data-name="Path 6056" d="M826.055,282.584l2.863,7.58a4.943,4.943,0,0,1-3.237,6.088,13.647,13.647,0,0,1-6.028.51c-2.211-.168-3.433-2.227-3.562-5.11a26.953,26.953,0,0,1,1.332-9.071C818.77,278.384,823.827,277.779,826.055,282.584Z" transform="translate(-735.019 -272.926)" fill="#ff6161"/>
          <path id="Path_6057" data-name="Path 6057" d="M822.907,279.343s3.8,2.259,1.693,6.185c-1.05,1.952,1.03,2.921,1.848.888s2.025-5.081,1.025-5.9S822.907,279.343,822.907,279.343Z" transform="translate(-735.332 -272.932)" fill="#151515"/>
          <path id="Path_6058" data-name="Path 6058" d="M826.612,286.593a7.083,7.083,0,0,0,.07-1.5c-.041-.953.117-2.38,1.562-1.746,2.1.922,2.047,6.014-.293,6.5C826.213,290.216,826.4,287.84,826.612,286.593Z" transform="translate(-735.496 -273.108)" fill="#ff6161"/>
          <path id="Path_6059" data-name="Path 6059" d="M821.336,288.844a13.327,13.327,0,0,1-4.384.329s0,1.678,1.047,2.215S820.818,290.871,821.336,288.844Z" transform="translate(-735.06 -273.367)" fill="#fff"/>
          <g id="Group_7663" data-name="Group 7663" transform="translate(81.718 17.072)">
            <path id="Path_6060" data-name="Path 6060" d="M818.874,294.45c2.438-.6,4.474,3.041,8.691-.686a6.329,6.329,0,0,0,1.323-3.248l.062.166a4.943,4.943,0,0,1-3.237,6.088,13.661,13.661,0,0,1-6.028.51,3.441,3.441,0,0,1-2.916-2.178A11.8,11.8,0,0,0,818.874,294.45Z" transform="translate(-816.769 -290.516)" fill="#ad263d"/>
          </g>
          <path id="Path_6061" data-name="Path 6061" d="M823.321,307.437s-.384,2.094-1.364,2.016-3.042-1.466-2.268-2.717a2.467,2.467,0,0,1,2.4-.968S823.493,306.778,823.321,307.437Z" transform="translate(-735.177 -274.141)" fill="#311e69"/>
          <g id="Group_7664" data-name="Group 7664" transform="translate(81.267 24.869)">
            <path id="Path_6062" data-name="Path 6062" d="M822.213,305.445s4.818-.873,7.094-2.316c1.5-.948,3.1-4.442,3.1-4.442s2.712,3.653,2.675,6.672l-11.131,5.631a34.165,34.165,0,0,0-.852-3.781C822.9,306.719,822.213,305.445,822.213,305.445Z" transform="translate(-816.568 -298.687)" fill="#ffd6d6"/>
            <path id="Path_6063" data-name="Path 6063" d="M821.942,305.468s-1.359-4.783-.735-6.268c0,0-1.7,1.248-2.925,2.065a13.154,13.154,0,0,0-1.986,1.6l1.341,5.866S820.767,305.077,821.942,305.468Z" transform="translate(-816.297 -298.711)" fill="#ffd6d6"/>
          </g>
          <path id="Path_6064" data-name="Path 6064" d="M848.527,314.072c-17.852,9.771,24.718,49.729,20.195,67.885s-18.756,47.051-8.035,51.207c14.745,5.719,34.833-39.256,32.137-65.983S858.156,308.8,848.527,314.072Z" transform="translate(-736.304 -274.496)" fill="#614cd4"/>
          <path id="Path_6065" data-name="Path 6065" d="M861.148,433.185a5.306,5.306,0,0,1-2.224-1.594c3.283-6.811,15.3-15.9,21.123-21.765,7.355-7.413,7.419-18.2,3.025-26.687s4.478-16.861,3.794-23.92-4.76-16.683-13.367-19.213-11.472-10.721-17.5-22.874a31.6,31.6,0,0,0-1.795-3.195c12.791,3.654,36.761,30.28,39.079,53.265C895.981,393.929,875.893,438.9,861.148,433.185Z" transform="translate(-736.766 -274.517)" fill="#311e69"/>
          <g id="Group_7665" data-name="Group 7665" transform="translate(71.284 26.938)">
            <path id="Path_6066" data-name="Path 6066" d="M820.063,307.551c1.487-.958,1.662,1.08,1.662,1.08-.948,2.9-1.783,30.24-2.249,48.88,7.925-16.7,13.215-53.47,13.215-53.47-19.981-12.768-24.7,16.544-25.584,23.089-.474,3.522-1.741,15.871-1.091,25.661,2.384-12.152,5.356-26.506,7.091-31.911C815.95,312.03,820.063,307.551,820.063,307.551Z" transform="translate(-805.834 -300.855)" fill="none"/>
            <path id="Path_6067" data-name="Path 6067" d="M810.891,369.6s6.78-7.963,8.594-11.784c.466-18.639,1.3-45.976,2.249-48.88,0,0-.176-2.038-1.662-1.08,0,0-4.114,4.479-6.955,13.328-1.736,5.406-4.707,19.76-7.092,31.911C806.584,361.5,810.891,369.6,810.891,369.6Z" transform="translate(-805.843 -301.165)" fill="#311e69"/>
          </g>
          <g id="Group_7667" data-name="Group 7667" transform="translate(90.054 160.833)">
            <g id="Group_7666" data-name="Group 7666" transform="translate(14.256)">
              <path id="Path_6068" data-name="Path 6068" d="M869.589,454.721a2.277,2.277,0,0,0,2.156-1.549l3.034-8.991a2.275,2.275,0,0,0-2.156-3h-29.9a2.275,2.275,0,0,0-2.107,3.136l3.666,8.991a2.276,2.276,0,1,0,4.215-1.718l-2.387-5.857h23.346l-2.021,5.989a2.278,2.278,0,0,0,2.156,3Z" transform="translate(-840.445 -441.177)" fill="#1e1240"/>
            </g>
            <rect id="Rectangle_841" data-name="Rectangle 841" width="57.086" height="42.117" transform="translate(57.086 51.488) rotate(180)" fill="#1e1240"/>
            <rect id="Rectangle_842" data-name="Rectangle 842" width="57.086" height="42.117" transform="translate(63.629 51.488) rotate(180)" fill="#311e69"/>
            <path id="Path_6069" data-name="Path 6069" d="M889.449,451S877.373,468.54,860.9,468.327,832.362,451,832.362,451Z" transform="translate(-825.819 -441.627)" fill="#1e1240"/>
            <path id="Path_6070" data-name="Path 6070" d="M864.293,464.9h-3.949a1.6,1.6,0,0,0-1.567,1.947l1.26,5.769a1.6,1.6,0,0,0,1.567,1.261h1.715a1.605,1.605,0,0,0,1.582-1.337l.974-5.769A1.6,1.6,0,0,0,864.293,464.9Z" transform="translate(-827.027 -442.263)" fill="#fff"/>
          </g>
          <path id="Path_6071" data-name="Path 6071" d="M860.611,434.254s-5.358.347-6.388,2.117a31.308,31.308,0,0,0-1.974,4.489s1.7.375,1.318,1.594c-.365,1.161-2.168,4.5-.656,4.779.655.122,2.348-.555,3.869-.522a15.464,15.464,0,0,0,4.878-.534c1.218-.563,4.47-7.659,3.44-9.441S860.611,434.254,860.611,434.254Z" transform="translate(-736.676 -280.027)" fill="#ff6161"/>
        </g>
        <g id="Group_7691" data-name="Group 7691" transform="translate(679.548 658.381)">
          <g id="Group_7689" data-name="Group 7689" transform="translate(0 11.318)">
            <g id="Group_7669" data-name="Group 7669" transform="translate(20.438 0.682)">
              <rect id="Rectangle_843" data-name="Rectangle 843" width="102.775" height="83.386" transform="translate(102.775 83.386) rotate(180)" fill="#ff6161"/>
            </g>
            <g id="Group_7670" data-name="Group 7670" transform="translate(0 0.682)">
              <rect id="Rectangle_844" data-name="Rectangle 844" width="20.438" height="83.386" transform="translate(20.438 83.386) rotate(180)" fill="#ad263d"/>
            </g>
            <g id="Group_7671" data-name="Group 7671" transform="translate(20.438 64.282)">
              <path id="Path_6074" data-name="Path 6074" d="M961.3,503.221c4.883,3.7,16.6,10.931,21.539,10.159,7.068-1.1,34.013,3.71,51.682-6.626,8.009-4.685,8.382,2.747,22.161.221a29.557,29.557,0,0,0,7.393-2.17v18.2H961.3Z" transform="translate(-961.301 -503.221)" fill="#ad263d"/>
            </g>
            <g id="Group_7673" data-name="Group 7673" transform="translate(40.21)">
              <g id="Group_7672" data-name="Group 7672">
                <rect id="Rectangle_845" data-name="Rectangle 845" width="3.534" height="84.822" fill="#311e69"/>
              </g>
            </g>
            <g id="Group_7675" data-name="Group 7675" transform="translate(99.908)">
              <g id="Group_7674" data-name="Group 7674">
                <rect id="Rectangle_846" data-name="Rectangle 846" width="3.534" height="84.822" fill="#311e69"/>
              </g>
            </g>
            <g id="Group_7676" data-name="Group 7676" transform="translate(39.106 62.791)">
              <path id="Path_6075" data-name="Path 6075" d="M985.632,505.263c-.407.437-1.117.74-2.25-.08a1.978,1.978,0,0,1-.819-1.6v-1.346l-.586.92a3.463,3.463,0,0,0-.518,1.852v1.157a3.707,3.707,0,0,0,1.186,2.818,2.754,2.754,0,0,0,4.335-2.75v-2.164a3.479,3.479,0,0,0-.481-1.792l-.4-.666v2.381A1.852,1.852,0,0,1,985.632,505.263Z" transform="translate(-981.459 -501.611)" fill="#ea9626"/>
            </g>
            <g id="Group_7677" data-name="Group 7677" transform="translate(98.804 62.791)">
              <path id="Path_6076" data-name="Path 6076" d="M1050.094,505.263c-.407.437-1.116.74-2.25-.08a1.978,1.978,0,0,1-.819-1.6v-1.346l-.586.92a3.463,3.463,0,0,0-.518,1.852v1.157a3.71,3.71,0,0,0,1.186,2.818,2.754,2.754,0,0,0,4.335-2.75v-2.164a3.479,3.479,0,0,0-.481-1.792l-.4-.666v2.381A1.852,1.852,0,0,1,1050.094,505.263Z" transform="translate(-1045.921 -501.611)" fill="#ea9626"/>
            </g>
            <g id="Group_7678" data-name="Group 7678" transform="translate(8.772 0.682)">
              <rect id="Rectangle_847" data-name="Rectangle 847" width="2.894" height="83.386" fill="#721a42"/>
            </g>
            <g id="Group_7679" data-name="Group 7679" transform="translate(109.304 72.234)">
              <path id="Path_6077" data-name="Path 6077" d="M1071.169,511.88s-11-1.735-13.91,11.761h13.91Z" transform="translate(-1057.259 -511.808)" fill="#ffd140"/>
            </g>
            <g id="Group_7680" data-name="Group 7680" transform="translate(109.304 0.682)">
              <path id="Path_6078" data-name="Path 6078" d="M1071.169,446.307s-11,1.735-13.91-11.762h13.91Z" transform="translate(-1057.259 -434.545)" fill="#ffd140"/>
            </g>
            <g id="Group_7681" data-name="Group 7681" transform="translate(20.438 72.234)">
              <path id="Path_6079" data-name="Path 6079" d="M961.3,511.88s11-1.735,13.91,11.761H961.3Z" transform="translate(-961.301 -511.808)" fill="#ffd140"/>
            </g>
            <g id="Group_7682" data-name="Group 7682" transform="translate(20.438 0.682)">
              <path id="Path_6080" data-name="Path 6080" d="M961.3,446.307s11,1.735,13.91-11.762H961.3Z" transform="translate(-961.301 -434.545)" fill="#ffd140"/>
            </g>
            <g id="Group_7683" data-name="Group 7683" transform="translate(13.483 0.682)">
              <path id="Path_6081" data-name="Path 6081" d="M960.746,446.307s-5.5,1.735-6.955-11.762h6.955Z" transform="translate(-953.791 -434.545)" fill="#ea9626"/>
            </g>
            <g id="Group_7684" data-name="Group 7684" transform="translate(13.483 72.234)">
              <path id="Path_6082" data-name="Path 6082" d="M960.746,511.88s-5.5-1.735-6.955,11.761h6.955Z" transform="translate(-953.791 -511.808)" fill="#ea9626"/>
            </g>
            <g id="Group_7685" data-name="Group 7685" transform="translate(0 0.682)">
              <path id="Path_6083" data-name="Path 6083" d="M939.232,446.307s5.5,1.735,6.955-11.762h-6.955Z" transform="translate(-939.232 -434.545)" fill="#ea9626"/>
            </g>
            <g id="Group_7686" data-name="Group 7686" transform="translate(0 72.234)">
              <path id="Path_6084" data-name="Path 6084" d="M939.232,511.88s5.5-1.735,6.955,11.761h-6.955Z" transform="translate(-939.232 -511.808)" fill="#ea9626"/>
            </g>
            <g id="Group_7687" data-name="Group 7687" transform="translate(48.414 13.031)">
              <path id="Path_6085" data-name="Path 6085" d="M1008.263,450.309l-15.24-2.43-1.514,9.555,14.765,3.255Z" transform="translate(-991.51 -447.88)" fill="#fff"/>
            </g>
            <g id="Group_7688" data-name="Group 7688" transform="translate(27.179 18.773)">
              <path id="Path_6086" data-name="Path 6086" d="M968.58,460.044a5.964,5.964,0,1,0,5.963-5.964A5.963,5.963,0,0,0,968.58,460.044Z" transform="translate(-968.58 -454.08)" fill="#fff"/>
            </g>
          </g>
          <g id="Group_7690" data-name="Group 7690" transform="translate(51.474)">
            <path id="Path_6087" data-name="Path 6087" d="M994.814,433.587H998.8v-8.011H1020v8.011h3.989v-10a1.994,1.994,0,0,0-1.994-1.995H996.808a1.994,1.994,0,0,0-1.994,1.995Z" transform="translate(-994.814 -421.588)" fill="#311e69"/>
          </g>
        </g>
      </g>
    </g>
  </g>
</svg>
